<mxfile host="Electron" agent="Mozilla/5.0 (Windows NT 10.0; Win64; x64) AppleWebKit/537.36 (KHTML, like Gecko) draw.io/28.1.2 Chrome/138.0.7204.243 Electron/37.4.0 Safari/537.36" version="28.1.2">
  <diagram name="PÃ¡gina-1" id="U_nHShoD5APvcQfWizZe">
    <mxGraphModel dx="679" dy="404" grid="1" gridSize="10" guides="1" tooltips="1" connect="1" arrows="1" fold="1" page="1" pageScale="1" pageWidth="827" pageHeight="1169" math="0" shadow="0">
      <root>
        <mxCell id="0" />
        <mxCell id="1" parent="0" />
        <mxCell id="Zv0c8JJr5T2XpcFolVj7-5" value="Ingreso de Pacientes" style="swimlane;whiteSpace=wrap;html=1;" parent="1" vertex="1">
          <mxGeometry x="330" width="520" height="400" as="geometry" />
        </mxCell>
        <mxCell id="Zv0c8JJr5T2XpcFolVj7-11" value="" style="edgeStyle=orthogonalEdgeStyle;rounded=0;orthogonalLoop=1;jettySize=auto;html=1;" parent="Zv0c8JJr5T2XpcFolVj7-5" source="Zv0c8JJr5T2XpcFolVj7-2" target="Zv0c8JJr5T2XpcFolVj7-10" edge="1">
          <mxGeometry relative="1" as="geometry" />
        </mxCell>
        <mxCell id="Zv0c8JJr5T2XpcFolVj7-2" value="Ingresar Datos del Paciente" style="whiteSpace=wrap;html=1;" parent="Zv0c8JJr5T2XpcFolVj7-5" vertex="1">
          <mxGeometry x="10" y="120" width="120" height="45" as="geometry" />
        </mxCell>
        <mxCell id="Zv0c8JJr5T2XpcFolVj7-9" value="Sistema" style="swimlane;whiteSpace=wrap;html=1;" parent="Zv0c8JJr5T2XpcFolVj7-5" vertex="1">
          <mxGeometry x="157" y="120" width="330" height="250" as="geometry" />
        </mxCell>
        <mxCell id="Zv0c8JJr5T2XpcFolVj7-25" style="edgeStyle=orthogonalEdgeStyle;rounded=0;orthogonalLoop=1;jettySize=auto;html=1;entryX=0.5;entryY=0;entryDx=0;entryDy=0;" parent="Zv0c8JJr5T2XpcFolVj7-9" source="Zv0c8JJr5T2XpcFolVj7-12" target="Zv0c8JJr5T2XpcFolVj7-15" edge="1">
          <mxGeometry relative="1" as="geometry" />
        </mxCell>
        <mxCell id="Zv0c8JJr5T2XpcFolVj7-12" value="Crear el &lt;b&gt;Ingreso del Paciente&lt;/b&gt;" style="whiteSpace=wrap;html=1;" parent="Zv0c8JJr5T2XpcFolVj7-9" vertex="1">
          <mxGeometry x="184.5" y="62.5" width="127" height="35" as="geometry" />
        </mxCell>
        <mxCell id="Zv0c8JJr5T2XpcFolVj7-17" style="edgeStyle=orthogonalEdgeStyle;rounded=0;orthogonalLoop=1;jettySize=auto;html=1;entryX=0;entryY=0.5;entryDx=0;entryDy=0;" parent="Zv0c8JJr5T2XpcFolVj7-9" source="Zv0c8JJr5T2XpcFolVj7-16" target="Zv0c8JJr5T2XpcFolVj7-12" edge="1">
          <mxGeometry relative="1" as="geometry" />
        </mxCell>
        <mxCell id="Zv0c8JJr5T2XpcFolVj7-16" value="Crear el &lt;b&gt;Paciente&lt;/b&gt;" style="whiteSpace=wrap;html=1;" parent="Zv0c8JJr5T2XpcFolVj7-9" vertex="1">
          <mxGeometry x="23" y="65" width="107" height="30" as="geometry" />
        </mxCell>
        <mxCell id="Zv0c8JJr5T2XpcFolVj7-19" style="edgeStyle=orthogonalEdgeStyle;rounded=0;orthogonalLoop=1;jettySize=auto;html=1;" parent="Zv0c8JJr5T2XpcFolVj7-9" source="Zv0c8JJr5T2XpcFolVj7-15" target="Zv0c8JJr5T2XpcFolVj7-13" edge="1">
          <mxGeometry relative="1" as="geometry" />
        </mxCell>
        <mxCell id="Zv0c8JJr5T2XpcFolVj7-15" value="Asociar el &lt;b&gt;Paciente &lt;/b&gt;con el &lt;b&gt;Ingreso&lt;/b&gt;" style="whiteSpace=wrap;html=1;" parent="Zv0c8JJr5T2XpcFolVj7-9" vertex="1">
          <mxGeometry x="183" y="120" width="130" height="40" as="geometry" />
        </mxCell>
        <mxCell id="Zv0c8JJr5T2XpcFolVj7-22" style="edgeStyle=orthogonalEdgeStyle;rounded=0;orthogonalLoop=1;jettySize=auto;html=1;entryX=0.5;entryY=0;entryDx=0;entryDy=0;" parent="Zv0c8JJr5T2XpcFolVj7-9" source="Zv0c8JJr5T2XpcFolVj7-13" target="Zv0c8JJr5T2XpcFolVj7-20" edge="1">
          <mxGeometry relative="1" as="geometry" />
        </mxCell>
        <mxCell id="Zv0c8JJr5T2XpcFolVj7-13" value="Crear la &lt;b&gt;Ficha&lt;/b&gt;" style="whiteSpace=wrap;html=1;" parent="Zv0c8JJr5T2XpcFolVj7-9" vertex="1">
          <mxGeometry x="23" y="125" width="107" height="30" as="geometry" />
        </mxCell>
        <mxCell id="Zv0c8JJr5T2XpcFolVj7-20" value="Asocia el &lt;b&gt;Ingreso &lt;/b&gt;con la &lt;b&gt;Ficha&lt;/b&gt;" style="whiteSpace=wrap;html=1;" parent="Zv0c8JJr5T2XpcFolVj7-9" vertex="1">
          <mxGeometry x="23" y="190" width="107" height="40" as="geometry" />
        </mxCell>
        <mxCell id="Zv0c8JJr5T2XpcFolVj7-26" style="rounded=0;orthogonalLoop=1;jettySize=auto;html=1;entryX=0;entryY=0.5;entryDx=0;entryDy=0;" parent="Zv0c8JJr5T2XpcFolVj7-5" source="Zv0c8JJr5T2XpcFolVj7-10" target="Zv0c8JJr5T2XpcFolVj7-16" edge="1">
          <mxGeometry relative="1" as="geometry">
            <mxPoint x="160" y="211.25" as="targetPoint" />
          </mxGeometry>
        </mxCell>
        <mxCell id="Zv0c8JJr5T2XpcFolVj7-10" value="Enviar Datos" style="whiteSpace=wrap;html=1;" parent="Zv0c8JJr5T2XpcFolVj7-5" vertex="1">
          <mxGeometry x="30" y="200" width="80" height="22.5" as="geometry" />
        </mxCell>
        <mxCell id="Zv0c8JJr5T2XpcFolVj7-1" value="Inicio" style="ellipse;whiteSpace=wrap;html=1;" parent="Zv0c8JJr5T2XpcFolVj7-5" vertex="1">
          <mxGeometry x="40" y="40" width="60" height="50" as="geometry" />
        </mxCell>
        <mxCell id="Zv0c8JJr5T2XpcFolVj7-3" value="" style="edgeStyle=orthogonalEdgeStyle;rounded=0;orthogonalLoop=1;jettySize=auto;html=1;" parent="Zv0c8JJr5T2XpcFolVj7-5" source="Zv0c8JJr5T2XpcFolVj7-1" target="Zv0c8JJr5T2XpcFolVj7-2" edge="1">
          <mxGeometry relative="1" as="geometry" />
        </mxCell>
      </root>
    </mxGraphModel>
  </diagram>
</mxfile>
